<svg data-v-423bf9ae="" xmlns="http://www.w3.org/2000/svg" viewBox="0 0 723 90" class="iconLeft"><!----><!----><!----><g data-v-423bf9ae="" id="5b052ba1-9161-4f84-9a22-8ed93a12e918" fill="white" transform="matrix(4.735595703125,0,0,4.735595703125,70.99395751953125,4.723758220672607)"><path d="M1.11 12.29L1.11 2.69L2.44 2.69L2.44 7.98L7.52 2.69L9.17 2.69L5.52 6.52L9.30 12.29L7.71 12.29L4.59 7.48L2.44 9.49L2.44 12.29L1.11 12.29ZM12.28 12.46L12.28 12.46Q11.33 12.46 10.58 12.01L10.58 12.01L10.58 12.01Q9.84 11.56 9.84 10.39L9.84 10.39L9.84 10.39Q9.84 8.97 11.10 8.45L11.10 8.45L11.10 8.45Q12.36 7.92 14.74 7.92L14.74 7.92L14.74 7.11L14.74 7.11Q14.74 6.47 14.38 6.13L14.38 6.13L14.38 6.13Q14.01 5.78 13.06 5.78L13.06 5.78L13.06 5.78Q12.17 5.78 11.78 6.12L11.78 6.12L11.78 6.12Q11.40 6.45 11.40 6.94L11.40 6.94L11.40 7.11L10.21 7.11L10.21 7.11Q10.19 7.03 10.19 6.80L10.19 6.80L10.19 6.80Q10.19 5.82 11.00 5.29L11.00 5.29L11.00 5.29Q11.82 4.76 13.17 4.76L13.17 4.76L13.17 4.76Q14.55 4.76 15.26 5.33L15.26 5.33L15.26 5.33Q15.97 5.91 15.97 6.96L15.97 6.96L15.97 10.95L15.97 10.95Q15.97 11.20 16.11 11.32L16.11 11.32L16.11 11.32Q16.25 11.44 16.46 11.44L16.46 11.44L17.02 11.44L17.02 12.24L17.02 12.24Q16.66 12.40 16.07 12.40L16.07 12.40L16.07 12.40Q15.60 12.40 15.27 12.12L15.27 12.12L15.27 12.12Q14.95 11.83 14.84 11.35L14.84 11.35L14.74 11.35L14.74 11.35Q14.36 11.87 13.71 12.17L13.71 12.17L13.71 12.17Q13.06 12.46 12.28 12.46L12.28 12.46ZM12.60 11.44L12.60 11.44Q13.15 11.44 13.64 11.21L13.64 11.21L13.64 11.21Q14.13 10.99 14.43 10.55L14.43 10.55L14.43 10.55Q14.74 10.11 14.74 9.48L14.74 9.48L14.74 8.95L14.74 8.95Q12.94 8.95 12.03 9.23L12.03 9.23L12.03 9.23Q11.13 9.52 11.13 10.32L11.13 10.32L11.13 10.32Q11.13 10.92 11.50 11.18L11.50 11.18L11.50 11.18Q11.87 11.44 12.60 11.44L12.60 11.44ZM18.06 12.29L18.06 4.93L19.00 4.93L19.14 6.03L19.22 6.03L19.22 6.03Q19.43 5.49 19.85 5.12L19.85 5.12L19.85 5.12Q20.27 4.76 20.96 4.76L20.96 4.76L20.96 4.76Q21.20 4.76 21.38 4.81L21.38 4.81L21.38 4.81Q21.57 4.86 21.62 4.87L21.62 4.87L21.62 6.06L21.10 6.06L21.10 6.06Q20.31 6.06 19.80 6.52L19.80 6.52L19.80 6.52Q19.29 6.97 19.29 7.94L19.29 7.94L19.29 12.29L18.06 12.29ZM22.72 12.29L22.72 4.93L23.66 4.93L23.80 5.92L23.90 5.92L23.90 5.92Q24.65 4.76 26.11 4.76L26.11 4.76L26.11 4.76Q27.54 4.76 28.01 5.92L28.01 5.92L28.10 5.92L28.10 5.92Q28.48 5.36 29.09 5.06L29.09 5.06L29.09 5.06Q29.69 4.76 30.38 4.76L30.38 4.76L30.38 4.76Q32.55 4.76 32.55 6.99L32.55 6.99L32.55 12.29L31.32 12.29L31.32 7.21L31.32 7.21Q31.32 6.41 30.97 6.10L30.97 6.10L30.97 6.10Q30.62 5.78 30.00 5.78L30.00 5.78L30.00 5.78Q29.26 5.78 28.76 6.37L28.76 6.37L28.76 6.37Q28.25 6.96 28.25 7.94L28.25 7.94L28.25 12.29L27.02 12.29L27.02 7.21L27.02 7.21Q27.02 6.41 26.68 6.10L26.68 6.10L26.68 6.10Q26.35 5.78 25.73 5.78L25.73 5.78L25.73 5.78Q25.26 5.78 24.85 6.04L24.85 6.04L24.85 6.04Q24.44 6.30 24.20 6.79L24.20 6.79L24.20 6.79Q23.95 7.28 23.95 7.94L23.95 7.94L23.95 12.29L22.72 12.29ZM36.39 12.46L36.39 12.46Q35.43 12.46 34.69 12.01L34.69 12.01L34.69 12.01Q33.95 11.56 33.95 10.39L33.95 10.39L33.95 10.39Q33.95 8.97 35.21 8.45L35.21 8.45L35.21 8.45Q36.47 7.92 38.85 7.92L38.85 7.92L38.85 7.11L38.85 7.11Q38.85 6.47 38.49 6.13L38.49 6.13L38.49 6.13Q38.12 5.78 37.17 5.78L37.17 5.78L37.17 5.78Q36.27 5.78 35.89 6.12L35.89 6.12L35.89 6.12Q35.50 6.45 35.50 6.94L35.50 6.94L35.50 7.11L34.31 7.11L34.31 7.11Q34.30 7.03 34.30 6.80L34.30 6.80L34.30 6.80Q34.30 5.82 35.11 5.29L35.11 5.29L35.11 5.29Q35.92 4.76 37.28 4.76L37.28 4.76L37.28 4.76Q38.65 4.76 39.37 5.33L39.37 5.33L39.37 5.33Q40.08 5.91 40.08 6.96L40.08 6.96L40.08 10.95L40.08 10.95Q40.08 11.20 40.22 11.32L40.22 11.32L40.22 11.32Q40.36 11.44 40.57 11.44L40.57 11.44L41.13 11.44L41.13 12.24L41.13 12.24Q40.77 12.40 40.18 12.40L40.18 12.40L40.18 12.40Q39.70 12.40 39.38 12.12L39.38 12.12L39.38 12.12Q39.06 11.83 38.95 11.35L38.95 11.35L38.85 11.35L38.85 11.35Q38.47 11.87 37.82 12.17L37.82 12.17L37.82 12.17Q37.17 12.46 36.39 12.46L36.39 12.46ZM36.71 11.44L36.71 11.44Q37.25 11.44 37.74 11.21L37.74 11.21L37.74 11.21Q38.23 10.99 38.54 10.55L38.54 10.55L38.54 10.55Q38.85 10.11 38.85 9.48L38.85 9.48L38.85 8.95L38.85 8.95Q37.04 8.95 36.14 9.23L36.14 9.23L36.14 9.23Q35.24 9.52 35.24 10.32L35.24 10.32L35.24 10.32Q35.24 10.92 35.61 11.18L35.61 11.18L35.61 11.18Q35.98 11.44 36.71 11.44L36.71 11.44ZM42.17 12.29L42.17 4.93L43.11 4.93L43.25 5.92L43.34 5.92L43.34 5.92Q44.16 4.76 45.82 4.76L45.82 4.76L45.82 4.76Q46.93 4.76 47.52 5.35L47.52 5.35L47.52 5.35Q48.12 5.95 48.12 7.27L48.12 7.27L48.12 12.29L46.89 12.29L46.89 7.35L46.89 7.35Q46.89 6.47 46.49 6.13L46.49 6.13L46.49 6.13Q46.10 5.78 45.36 5.78L45.36 5.78L45.36 5.78Q44.83 5.78 44.38 6.04L44.38 6.04L44.38 6.04Q43.93 6.30 43.67 6.79L43.67 6.79L43.67 6.79Q43.40 7.28 43.40 7.94L43.40 7.94L43.40 12.29L42.17 12.29ZM50.65 14.84L50.65 14.84Q50.04 14.84 49.67 14.73L49.67 14.73L49.67 13.93L50.16 13.93L50.16 13.93Q51.59 13.93 52.04 12.29L52.04 12.29L49.20 4.93L50.50 4.93L51.87 8.61L51.87 8.61Q52.07 9.13 52.32 9.90L52.32 9.90L52.32 9.90Q52.58 10.68 52.67 10.92L52.67 10.92L52.74 10.92L52.74 10.92Q52.81 10.68 53.00 10.02L53.00 10.02L53.00 10.02Q53.19 9.37 53.42 8.61L53.42 8.61L54.60 4.93L55.83 4.93L53.41 11.91L53.41 11.91Q52.92 13.31 52.30 14.08L52.30 14.08L52.30 14.08Q51.67 14.84 50.65 14.84L50.65 14.84ZM58.95 12.46L58.95 12.46Q58.00 12.46 57.26 12.01L57.26 12.01L57.26 12.01Q56.52 11.56 56.52 10.39L56.52 10.39L56.52 10.39Q56.52 8.97 57.78 8.45L57.78 8.45L57.78 8.45Q59.04 7.92 61.42 7.92L61.42 7.92L61.42 7.11L61.42 7.11Q61.42 6.47 61.05 6.13L61.05 6.13L61.05 6.13Q60.69 5.78 59.74 5.78L59.74 5.78L59.74 5.78Q58.84 5.78 58.46 6.12L58.46 6.12L58.46 6.12Q58.07 6.45 58.07 6.94L58.07 6.94L58.07 7.11L56.88 7.11L56.88 7.11Q56.87 7.03 56.87 6.80L56.87 6.80L56.87 6.80Q56.87 5.82 57.68 5.29L57.68 5.29L57.68 5.29Q58.49 4.76 59.85 4.76L59.85 4.76L59.85 4.76Q61.22 4.76 61.94 5.33L61.94 5.33L61.94 5.33Q62.65 5.91 62.65 6.96L62.65 6.96L62.65 10.95L62.65 10.95Q62.65 11.20 62.79 11.32L62.79 11.32L62.79 11.32Q62.93 11.44 63.14 11.44L63.14 11.44L63.70 11.44L63.70 12.24L63.70 12.24Q63.34 12.40 62.75 12.40L62.75 12.40L62.75 12.40Q62.27 12.40 61.95 12.12L61.95 12.12L61.95 12.12Q61.63 11.83 61.52 11.35L61.52 11.35L61.42 11.35L61.42 11.35Q61.04 11.87 60.39 12.17L60.39 12.17L60.39 12.17Q59.74 12.46 58.95 12.46L58.95 12.46ZM59.28 11.44L59.28 11.44Q59.82 11.44 60.31 11.21L60.31 11.21L60.31 11.21Q60.80 10.99 61.11 10.55L61.11 10.55L61.11 10.55Q61.42 10.11 61.42 9.48L61.42 9.48L61.42 8.95L61.42 8.95Q59.61 8.95 58.71 9.23L58.71 9.23L58.71 9.23Q57.81 9.52 57.81 10.32L57.81 10.32L57.81 10.32Q57.81 10.92 58.18 11.18L58.18 11.18L58.18 11.18Q58.55 11.44 59.28 11.44L59.28 11.44ZM66.74 12.46L66.74 12.46Q65.79 12.46 65.04 12.01L65.04 12.01L65.04 12.01Q64.30 11.56 64.30 10.39L64.30 10.39L64.30 10.39Q64.30 8.97 65.56 8.45L65.56 8.45L65.56 8.45Q66.82 7.92 69.20 7.92L69.20 7.92L69.20 7.11L69.20 7.11Q69.20 6.47 68.84 6.13L68.84 6.13L68.84 6.13Q68.47 5.78 67.52 5.78L67.52 5.78L67.52 5.78Q66.63 5.78 66.24 6.12L66.24 6.12L66.24 6.12Q65.86 6.45 65.86 6.94L65.86 6.94L65.86 7.11L64.67 7.11L64.67 7.11Q64.65 7.03 64.65 6.80L64.65 6.80L64.65 6.80Q64.65 5.82 65.46 5.29L65.46 5.29L65.46 5.29Q66.28 4.76 67.63 4.76L67.63 4.76L67.63 4.76Q69.01 4.76 69.72 5.33L69.72 5.33L69.72 5.33Q70.43 5.91 70.43 6.96L70.43 6.96L70.43 10.95L70.43 10.95Q70.43 11.20 70.57 11.32L70.57 11.32L70.57 11.32Q70.71 11.44 70.92 11.44L70.92 11.44L71.48 11.44L71.48 12.24L71.48 12.24Q71.12 12.40 70.53 12.40L70.53 12.40L70.53 12.40Q70.06 12.40 69.73 12.12L69.73 12.12L69.73 12.12Q69.41 11.83 69.30 11.35L69.30 11.35L69.20 11.35L69.20 11.35Q68.82 11.87 68.17 12.17L68.17 12.17L68.17 12.17Q67.52 12.46 66.74 12.46L66.74 12.46ZM67.06 11.44L67.06 11.44Q67.61 11.44 68.10 11.21L68.10 11.21L68.10 11.21Q68.59 10.99 68.89 10.55L68.89 10.55L68.89 10.55Q69.20 10.11 69.20 9.48L69.20 9.48L69.20 8.95L69.20 8.95Q67.40 8.95 66.49 9.23L66.49 9.23L66.49 9.23Q65.59 9.52 65.59 10.32L65.59 10.32L65.59 10.32Q65.59 10.92 65.96 11.18L65.96 11.18L65.96 11.18Q66.33 11.44 67.06 11.44L67.06 11.44ZM72.52 12.29L72.52 2.17L73.75 2.17L73.75 5.75L73.85 5.75L73.85 5.75Q74.62 4.76 76.17 4.76L76.17 4.76L76.17 4.76Q78.47 4.76 78.47 7.27L78.47 7.27L78.47 12.29L77.24 12.29L77.24 7.35L77.24 7.35Q77.24 6.47 76.85 6.13L76.85 6.13L76.85 6.13Q76.45 5.78 75.71 5.78L75.71 5.78L75.71 5.78Q75.18 5.78 74.73 6.04L74.73 6.04L74.73 6.04Q74.28 6.30 74.02 6.79L74.02 6.79L74.02 6.79Q73.75 7.28 73.75 7.94L73.75 7.94L73.75 12.29L72.52 12.29ZM84.36 12.29L84.36 2.69L86.34 2.69L88.63 9.24L88.63 9.24Q88.76 9.60 88.89 10.07L88.89 10.07L88.89 10.07Q89.03 10.54 89.07 10.68L89.07 10.68L89.12 10.68L89.12 10.68Q89.17 10.53 89.30 10.04L89.30 10.04L89.30 10.04Q89.43 9.55 89.54 9.24L89.54 9.24L91.85 2.69L93.81 2.69L93.81 12.29L92.48 12.29L92.48 5.95L92.51 4.16L92.41 4.16L92.41 4.16Q92.40 4.26 92.33 4.56L92.33 4.56L92.33 4.56Q92.26 4.86 92.18 5.08L92.18 5.08L89.57 12.29L88.47 12.29L85.90 5.08L85.90 5.08Q85.83 4.89 85.76 4.57L85.76 4.57L85.76 4.57Q85.68 4.26 85.67 4.16L85.67 4.16L85.58 4.16L85.61 5.95L85.61 12.29L84.36 12.29ZM97.86 12.46L97.86 12.46Q96.91 12.46 96.17 12.01L96.17 12.01L96.17 12.01Q95.42 11.56 95.42 10.39L95.42 10.39L95.42 10.39Q95.42 8.97 96.68 8.45L96.68 8.45L96.68 8.45Q97.94 7.92 100.32 7.92L100.32 7.92L100.32 7.11L100.32 7.11Q100.32 6.47 99.96 6.13L99.96 6.13L99.96 6.13Q99.60 5.78 98.64 5.78L98.64 5.78L98.64 5.78Q97.75 5.78 97.36 6.12L97.36 6.12L97.36 6.12Q96.98 6.45 96.98 6.94L96.98 6.94L96.98 7.11L95.79 7.11L95.79 7.11Q95.77 7.03 95.77 6.80L95.77 6.80L95.77 6.80Q95.77 5.82 96.59 5.29L96.59 5.29L96.59 5.29Q97.40 4.76 98.76 4.76L98.76 4.76L98.76 4.76Q100.13 4.76 100.84 5.33L100.84 5.33L100.84 5.33Q101.56 5.91 101.56 6.96L101.56 6.96L101.56 10.95L101.56 10.95Q101.56 11.20 101.70 11.32L101.70 11.32L101.70 11.32Q101.84 11.44 102.05 11.44L102.05 11.44L102.61 11.44L102.61 12.24L102.61 12.24Q102.24 12.40 101.65 12.40L101.65 12.40L101.65 12.40Q101.18 12.40 100.86 12.12L100.86 12.12L100.86 12.12Q100.53 11.83 100.42 11.35L100.42 11.35L100.32 11.35L100.32 11.35Q99.95 11.87 99.30 12.17L99.30 12.17L99.30 12.17Q98.64 12.46 97.86 12.46L97.86 12.46ZM98.18 11.44L98.18 11.44Q98.73 11.44 99.22 11.21L99.22 11.21L99.22 11.21Q99.71 10.99 100.02 10.55L100.02 10.55L100.02 10.55Q100.32 10.11 100.32 9.48L100.32 9.48L100.32 8.95L100.32 8.95Q98.52 8.95 97.61 9.23L97.61 9.23L97.61 9.23Q96.71 9.52 96.71 10.32L96.71 10.32L96.71 10.32Q96.71 10.92 97.08 11.18L97.08 11.18L97.08 11.18Q97.45 11.44 98.18 11.44L98.18 11.44ZM103.64 12.29L103.64 2.17L104.87 2.17L104.87 12.29L103.64 12.29ZM106.75 12.29L106.75 2.17L107.98 2.17L107.98 5.75L108.08 5.75L108.08 5.75Q108.85 4.76 110.40 4.76L110.40 4.76L110.40 4.76Q112.70 4.76 112.70 7.27L112.70 7.27L112.70 12.29L111.47 12.29L111.47 7.35L111.47 7.35Q111.47 6.47 111.08 6.13L111.08 6.13L111.08 6.13Q110.68 5.78 109.94 5.78L109.94 5.78L109.94 5.78Q109.41 5.78 108.96 6.04L108.96 6.04L108.96 6.04Q108.51 6.30 108.25 6.79L108.25 6.79L108.25 6.79Q107.98 7.28 107.98 7.94L107.98 7.94L107.98 12.29L106.75 12.29ZM117.49 12.46L117.49 12.46Q115.79 12.46 114.94 11.52L114.94 11.52L114.94 11.52Q114.09 10.57 114.09 8.61L114.09 8.61L114.09 8.61Q114.09 6.65 114.94 5.71L114.94 5.71L114.94 5.71Q115.79 4.76 117.49 4.76L117.49 4.76L117.49 4.76Q119.18 4.76 120.04 5.71L120.04 5.71L120.04 5.71Q120.89 6.65 120.89 8.61L120.89 8.61L120.89 8.61Q120.89 10.57 120.04 11.52L120.04 11.52L120.04 11.52Q119.18 12.46 117.49 12.46L117.49 12.46ZM117.49 11.44L117.49 11.44Q118.61 11.44 119.11 10.79L119.11 10.79L119.11 10.79Q119.62 10.14 119.62 8.67L119.62 8.67L119.62 8.55L119.62 8.55Q119.62 7.08 119.11 6.43L119.11 6.43L119.11 6.43Q118.61 5.78 117.49 5.78L117.49 5.78L117.49 5.78Q116.37 5.78 115.86 6.43L115.86 6.43L115.86 6.43Q115.36 7.08 115.36 8.55L115.36 8.55L115.36 8.67L115.36 8.67Q115.36 10.14 115.86 10.79L115.86 10.79L115.86 10.79Q116.37 11.44 117.49 11.44L117.49 11.44ZM123.98 12.45L123.98 12.45Q123.23 12.45 122.88 12.00L122.88 12.00L122.88 12.00Q122.53 11.55 122.53 10.89L122.53 10.89L122.53 5.95L121.63 5.95L121.63 4.93L122.54 4.93L122.81 2.88L123.76 2.88L123.76 4.93L125.01 4.93L125.01 5.95L123.76 5.95L123.76 10.78L123.76 10.78Q123.76 11.44 124.38 11.44L124.38 11.44L125.01 11.44L125.01 12.25L125.01 12.25Q124.82 12.33 124.53 12.39L124.53 12.39L124.53 12.39Q124.24 12.45 123.98 12.45L123.98 12.45ZM126.21 12.29L126.21 4.93L127.15 4.93L127.29 6.03L127.37 6.03L127.37 6.03Q127.58 5.49 128.00 5.12L128.00 5.12L128.00 5.12Q128.42 4.76 129.11 4.76L129.11 4.76L129.11 4.76Q129.35 4.76 129.54 4.81L129.54 4.81L129.54 4.81Q129.72 4.86 129.77 4.87L129.77 4.87L129.77 6.06L129.25 6.06L129.25 6.06Q128.46 6.06 127.95 6.52L127.95 6.52L127.95 6.52Q127.44 6.97 127.44 7.94L127.44 7.94L127.44 12.29L126.21 12.29ZM132.87 12.46L132.87 12.46Q131.92 12.46 131.18 12.01L131.18 12.01L131.18 12.01Q130.44 11.56 130.44 10.39L130.44 10.39L130.44 10.39Q130.44 8.97 131.70 8.45L131.70 8.45L131.70 8.45Q132.96 7.92 135.34 7.92L135.34 7.92L135.34 7.11L135.34 7.11Q135.34 6.47 134.97 6.13L134.97 6.13L134.97 6.13Q134.61 5.78 133.66 5.78L133.66 5.78L133.66 5.78Q132.76 5.78 132.38 6.12L132.38 6.12L132.38 6.12Q131.99 6.45 131.99 6.94L131.99 6.94L131.99 7.11L130.80 7.11L130.80 7.11Q130.79 7.03 130.79 6.80L130.79 6.80L130.79 6.80Q130.79 5.82 131.60 5.29L131.60 5.29L131.60 5.29Q132.41 4.76 133.77 4.76L133.77 4.76L133.77 4.76Q135.14 4.76 135.86 5.33L135.86 5.33L135.86 5.33Q136.57 5.91 136.57 6.96L136.57 6.96L136.57 10.95L136.57 10.95Q136.57 11.20 136.71 11.32L136.71 11.32L136.71 11.32Q136.85 11.44 137.06 11.44L137.06 11.44L137.62 11.44L137.62 12.24L137.62 12.24Q137.26 12.40 136.67 12.40L136.67 12.40L136.67 12.40Q136.19 12.40 135.87 12.12L135.87 12.12L135.87 12.12Q135.55 11.83 135.44 11.35L135.44 11.35L135.34 11.35L135.34 11.35Q134.96 11.87 134.31 12.17L134.31 12.17L134.31 12.17Q133.66 12.46 132.87 12.46L132.87 12.46ZM133.20 11.44L133.20 11.44Q133.74 11.44 134.23 11.21L134.23 11.21L134.23 11.21Q134.72 10.99 135.03 10.55L135.03 10.55L135.03 10.55Q135.34 10.11 135.34 9.48L135.34 9.48L135.34 8.95L135.34 8.95Q133.53 8.95 132.63 9.23L132.63 9.23L132.63 9.23Q131.73 9.52 131.73 10.32L131.73 10.32L131.73 10.32Q131.73 10.92 132.10 11.18L132.10 11.18L132.10 11.18Q132.47 11.44 133.20 11.44L133.20 11.44Z"></path></g><!----><g data-v-423bf9ae="" id="37e79130-6882-423e-b2b6-a298a9fe729f" transform="matrix(1.199984073638916,0,0,1.199984073638916,-31.43720245361328,-13.312213897705078)" stroke="none" fill="white"><path d="M57.5 73.438h-15a.937.937 0 1 0 0 1.876h8.438v2.812c0 2.067 1.681 3.75 3.75 3.75s3.75-1.683 3.75-3.75v-3.75a.936.936 0 0 0-.938-.938zM54.688 80a1.878 1.878 0 0 1-1.875-1.875v-2.812h3.75v2.812A1.878 1.878 0 0 1 54.688 80zM41.837 69.413a.936.936 0 0 0 1.326 0 .938.938 0 0 0 0-1.326l-1.212-1.212 1.212-1.212a.938.938 0 0 0-1.326-1.326l-1.212 1.212-1.212-1.212a.938.938 0 0 0-1.326 1.326l1.212 1.212-1.212 1.212a.938.938 0 0 0 1.326 1.326l1.212-1.212 1.212 1.212zM61.913 64.337a.938.938 0 0 0-1.326 0l-1.212 1.212-1.212-1.212a.938.938 0 0 0-1.326 1.326l1.212 1.212-1.212 1.212a.938.938 0 0 0 1.326 1.326l1.212-1.212 1.212 1.212a.936.936 0 0 0 1.326 0 .938.938 0 0 0 0-1.326l-1.212-1.212 1.212-1.212a.938.938 0 0 0 0-1.326z"></path><path d="M42.5 37.812c-1.653 0-2.432-.389-3.331-.839-.972-.485-2.072-1.036-4.169-1.036a.937.937 0 0 0-.938.938v4.706c-4.151.103-7.5 3.521-7.5 7.729v29.506c0 4.271 3.448 7.747 7.687 7.747h31.502c4.238 0 7.687-3.476 7.687-7.747V49.31c0-4.208-3.349-7.626-7.5-7.729V27.5c0-8.787-7.15-15.938-15.938-15.938S34.062 18.713 34.062 27.5c0 .519.419.938.938.938 1.653 0 2.432.389 3.331.839.972.485 2.072 1.036 4.169 1.036a.937.937 0 0 0 .938-.938V27.5c0-3.618 2.944-6.562 6.562-6.562s6.562 2.944 6.562 6.562v14.062H43.438V38.75a.937.937 0 0 0-.938-.938zM71.562 49.31v29.506c0 3.237-2.607 5.872-5.812 5.872H34.249c-3.204 0-5.812-2.635-5.812-5.872V49.31c0-3.237 2.607-5.872 5.812-5.872h31.502c3.204 0 5.811 2.634 5.811 5.872zM58.438 27.5c0-4.652-3.785-8.438-8.438-8.438s-8.438 3.785-8.438 8.438v.879c-1.04-.119-1.687-.427-2.394-.78-.811-.404-1.71-.854-3.204-.994.464-7.339 6.582-13.167 14.036-13.167 7.755 0 14.062 6.308 14.062 14.062v14.062h-5.625V27.5zm-22.5 14.062v-3.691c1.04.119 1.687.427 2.394.78.809.404 1.745.835 3.231.974v1.938h-5.625z"></path></g><!----></svg>