<svg xmlns="http://www.w3.org/2000/svg" xmlns:xlink="http://www.w3.org/1999/xlink" version="1.1" x="0px" y="0px" viewBox="0 0 100 100" enable-background="new 0 0 100 100" xml:space="preserve"><path fill="#000000" d="M57.5,73.438h-15c-0.519,0-0.938,0.419-0.938,0.938s0.419,0.938,0.938,0.938h8.438v2.812  c0,2.067,1.681,3.75,3.75,3.75s3.75-1.683,3.75-3.75v-3.75C58.438,73.856,58.019,73.438,57.5,73.438z M54.688,80  c-1.033,0-1.875-0.841-1.875-1.875v-2.812h3.75v2.812C56.562,79.159,55.721,80,54.688,80z"></path><path fill="#000000" d="M41.837,69.413c0.184,0.183,0.423,0.274,0.663,0.274s0.479-0.092,0.663-0.274  c0.366-0.366,0.366-0.96,0-1.326l-1.212-1.212l1.212-1.212c0.366-0.366,0.366-0.96,0-1.326s-0.96-0.366-1.326,0l-1.212,1.212  l-1.212-1.212c-0.366-0.366-0.96-0.366-1.326,0s-0.366,0.96,0,1.326l1.212,1.212l-1.212,1.212c-0.366,0.366-0.366,0.96,0,1.326  c0.184,0.183,0.423,0.274,0.663,0.274s0.479-0.092,0.663-0.274l1.212-1.212L41.837,69.413z"></path><path fill="#000000" d="M61.913,64.337c-0.366-0.366-0.96-0.366-1.326,0l-1.212,1.212l-1.212-1.212c-0.366-0.366-0.96-0.366-1.326,0  s-0.366,0.96,0,1.326l1.212,1.212l-1.212,1.212c-0.366,0.366-0.366,0.96,0,1.326c0.184,0.183,0.423,0.274,0.663,0.274  s0.479-0.092,0.663-0.274l1.212-1.212l1.212,1.212c0.184,0.183,0.423,0.274,0.663,0.274s0.479-0.092,0.663-0.274  c0.366-0.366,0.366-0.96,0-1.326l-1.212-1.212l1.212-1.212C62.279,65.297,62.279,64.703,61.913,64.337z"></path><path fill="#000000" d="M42.5,37.812c-1.653,0-2.432-0.389-3.331-0.839c-0.972-0.485-2.072-1.036-4.169-1.036  c-0.519,0-0.938,0.419-0.938,0.938v4.706c-4.151,0.103-7.5,3.521-7.5,7.729v29.506c0,4.271,3.448,7.747,7.687,7.747h31.502  c4.238,0,7.687-3.476,7.687-7.747V49.31c0-4.208-3.349-7.626-7.5-7.729V27.5c0-8.787-7.15-15.938-15.938-15.938  S34.062,18.713,34.062,27.5c0,0.519,0.419,0.938,0.938,0.938c1.653,0,2.432,0.389,3.331,0.839c0.972,0.485,2.072,1.036,4.169,1.036  c0.519,0,0.938-0.419,0.938-0.938V27.5c0-3.618,2.944-6.562,6.562-6.562s6.562,2.944,6.562,6.562v14.062H43.438V38.75  C43.438,38.231,43.019,37.812,42.5,37.812z M71.562,49.31v29.506c0,3.237-2.607,5.872-5.812,5.872H34.249  c-3.204,0-5.812-2.635-5.812-5.872V49.31c0-3.237,2.607-5.872,5.812-5.872h31.502C68.955,43.438,71.562,46.072,71.562,49.31z   M58.438,27.5c0-4.652-3.785-8.438-8.438-8.438s-8.438,3.785-8.438,8.438v0.879c-1.04-0.119-1.687-0.427-2.394-0.78  c-0.811-0.404-1.71-0.854-3.204-0.994C36.428,19.266,42.546,13.438,50,13.438c7.755,0,14.062,6.308,14.062,14.062v14.062h-5.625  V27.5z M35.938,41.562v-3.691c1.04,0.119,1.687,0.427,2.394,0.78c0.809,0.404,1.745,0.835,3.231,0.974v1.938H35.938z"></path></svg>