<svg data-v-fde0c5aa="" xmlns="http://www.w3.org/2000/svg" viewBox="0 0 300 300" class="icon"><!----><defs data-v-fde0c5aa=""><linearGradient data-v-fde0c5aa="" gradientTransform="rotate(25)" id="1a020142-baa2-48f1-ae8c-2f7e39582e89" x1="0%" y1="0%" x2="100%" y2="0%"><stop data-v-fde0c5aa="" offset="0%" stop-color="#288642" stop-opacity="1"></stop><stop data-v-fde0c5aa="" offset="100%" stop-color="#27FDFD" stop-opacity="1"></stop></linearGradient></defs><rect data-v-fde0c5aa="" fill="url(#1a020142-baa2-48f1-ae8c-2f7e39582e89)" x="0" y="0" width="300px" height="300px" class="logo-background-square"></rect><!----><defs data-v-fde0c5aa=""><!----></defs><g data-v-fde0c5aa="" id="c504bd78-86e5-4b20-9ffc-53d4cbbd7a05" fill="#ffffff" stroke="none" transform="matrix(2.9332945346832275,0,0,2.9332945346832275,3.335284058946968,6.085247692647293)"><path d="M57.5 73.438h-15a.937.937 0 1 0 0 1.876h8.438v2.812c0 2.067 1.681 3.75 3.75 3.75s3.75-1.683 3.75-3.75v-3.75a.936.936 0 0 0-.938-.938zM54.688 80a1.878 1.878 0 0 1-1.875-1.875v-2.812h3.75v2.812A1.878 1.878 0 0 1 54.688 80zM41.837 69.413a.936.936 0 0 0 1.326 0 .938.938 0 0 0 0-1.326l-1.212-1.212 1.212-1.212a.938.938 0 0 0-1.326-1.326l-1.212 1.212-1.212-1.212a.938.938 0 0 0-1.326 1.326l1.212 1.212-1.212 1.212a.938.938 0 0 0 1.326 1.326l1.212-1.212 1.212 1.212zM61.913 64.337a.938.938 0 0 0-1.326 0l-1.212 1.212-1.212-1.212a.938.938 0 0 0-1.326 1.326l1.212 1.212-1.212 1.212a.938.938 0 0 0 1.326 1.326l1.212-1.212 1.212 1.212a.936.936 0 0 0 1.326 0 .938.938 0 0 0 0-1.326l-1.212-1.212 1.212-1.212a.938.938 0 0 0 0-1.326z"></path><path d="M42.5 37.812c-1.653 0-2.432-.389-3.331-.839-.972-.485-2.072-1.036-4.169-1.036a.937.937 0 0 0-.938.938v4.706c-4.151.103-7.5 3.521-7.5 7.729v29.506c0 4.271 3.448 7.747 7.687 7.747h31.502c4.238 0 7.687-3.476 7.687-7.747V49.31c0-4.208-3.349-7.626-7.5-7.729V27.5c0-8.787-7.15-15.938-15.938-15.938S34.062 18.713 34.062 27.5c0 .519.419.938.938.938 1.653 0 2.432.389 3.331.839.972.485 2.072 1.036 4.169 1.036a.937.937 0 0 0 .938-.938V27.5c0-3.618 2.944-6.562 6.562-6.562s6.562 2.944 6.562 6.562v14.062H43.438V38.75a.937.937 0 0 0-.938-.938zM71.562 49.31v29.506c0 3.237-2.607 5.872-5.812 5.872H34.249c-3.204 0-5.812-2.635-5.812-5.872V49.31c0-3.237 2.607-5.872 5.812-5.872h31.502c3.204 0 5.811 2.634 5.811 5.872zM58.438 27.5c0-4.652-3.785-8.438-8.438-8.438s-8.438 3.785-8.438 8.438v.879c-1.04-.119-1.687-.427-2.394-.78-.811-.404-1.71-.854-3.204-.994.464-7.339 6.582-13.167 14.036-13.167 7.755 0 14.062 6.308 14.062 14.062v14.062h-5.625V27.5zm-22.5 14.062v-3.691c1.04.119 1.687.427 2.394.78.809.404 1.745.835 3.231.974v1.938h-5.625z"></path></g><!----></svg>